<svg width="60" height="41" viewBox="0 0 60 41" fill="none" xmlns="http://www.w3.org/2000/svg">
<g id="Group 2128">
<path id="Vector" d="M48.6395 17.601C47.5695 17.601 46.5373 17.752 45.5554 18.029L41.2189 6.5111L44.926 5.73066C45.2722 5.65513 45.5554 5.40966 45.675 5.06979C45.7883 4.73621 45.7254 4.36487 45.4925 4.08793L42.3707 0.361922C42.012 -0.0660653 41.3763 -0.122699 40.9483 0.236055C40.5203 0.594808 40.4637 1.2305 40.8224 1.65849L42.8616 4.09423L39.6454 4.77397C39.3559 4.83691 39.1105 5.01944 38.9657 5.2775C38.8209 5.53555 38.8021 5.84395 38.9091 6.12088L40.6147 10.6588H22.3183V7.85171C22.3183 7.7573 22.3057 7.66917 22.2805 7.58106C22.8155 7.37965 23.5393 7.20342 24.433 7.2286H26.9002C26.9002 7.2286 26.359 6.18382 25.6666 6.03906L21.3301 6.11458L20.0776 6.13346H19.7315C16.7041 6.25934 15.4956 5.25861 15.4956 5.25861C15.4956 5.25861 15.0677 5.4789 15.6278 6.21528C15.6278 6.21528 17.8999 8.97202 20.2916 8.51256V11.3385L16.1817 18.5073C14.7215 17.8213 13.0914 17.4373 11.3731 17.4373C5.09808 17.4373 0 22.5417 0 28.8168C0 35.0918 5.10437 40.1962 11.3731 40.1962C15.76 40.1962 19.5741 37.6975 21.4686 34.0533C23.3945 34.5191 25.1568 34.8967 26.3086 35.0352C26.4911 35.0604 26.68 35.0666 26.8625 35.0666C27.9954 35.0666 29.0842 34.6449 29.9906 33.8393C31.1927 32.7756 31.9039 31.177 31.9039 29.5658C31.9039 28.5336 31.6207 27.5328 31.0983 26.6642L42.2889 15.1275L43.6547 18.7528C39.8657 20.6032 37.2537 24.4928 37.2537 28.9804C37.2537 35.2554 42.3581 40.3535 48.6269 40.3535C54.8956 40.3535 60 35.2492 60 28.9804C60 22.7117 54.8956 17.6073 48.6269 17.6073L48.6395 17.601ZM20.9588 14.2526L23.7281 24.4236C23.1805 24.5054 22.5952 24.5998 21.9847 24.7005C21.1665 22.5984 19.7503 20.8046 17.9377 19.5206L20.9588 14.2526ZM20.7322 28.8105C20.7322 29.8049 20.5748 30.7616 20.2853 31.6616C17.7426 31.0133 15.118 30.2833 13.4501 29.8112C13.5571 29.5532 13.6201 29.2699 13.6201 28.9741C13.6201 28.7475 13.5886 28.5335 13.5194 28.3321C15.2502 27.9923 17.9629 27.4636 20.556 27.0041C20.6693 27.5895 20.7322 28.1937 20.7322 28.8105ZM14.1362 26.1481L16.9244 21.2829C18.2335 22.2522 19.2783 23.5488 19.9455 25.053C17.8748 25.4243 15.76 25.8272 14.1362 26.1419V26.1481ZM11.3794 38.1633C6.22469 38.1633 2.02664 33.9652 2.02664 28.8105C2.02664 23.6558 6.22469 19.4577 11.3794 19.4577C12.7326 19.4577 14.0166 19.7472 15.1747 20.2696L11.499 26.6768C11.3857 26.702 11.3165 26.7146 11.285 26.7209C11.1151 26.7524 10.964 26.8279 10.8444 26.9349C9.96958 27.2055 9.34019 28.0174 9.34019 28.9804C9.34019 29.8616 9.87517 30.6168 10.6367 30.9441C10.7563 31.0826 10.92 31.1896 11.1151 31.2462C11.392 31.328 15.4327 32.505 19.4482 33.5372C17.8244 36.3065 14.8159 38.1633 11.3794 38.1633ZM29.8899 29.5595C29.8899 30.6042 29.4304 31.6365 28.6562 32.3225C28.222 32.7064 27.5108 33.1344 26.5604 33.0211C25.547 32.8952 23.9862 32.5679 22.2553 32.1525C22.5826 31.0952 22.7588 29.9749 22.7588 28.8168C22.7588 28.0804 22.6833 27.3629 22.5511 26.6705C23.1491 26.5698 23.7281 26.4817 24.2631 26.3999L25.3519 30.4028C25.4463 30.7553 25.7233 31.0259 26.0757 31.1141C26.1576 31.1329 26.2457 31.1455 26.3275 31.1455C26.5981 31.1455 26.8625 31.0385 27.0513 30.8371L29.6129 28.1937C29.7892 28.6279 29.8836 29.0937 29.8836 29.5595H29.8899ZM26.2897 26.1293C26.3716 26.123 26.4534 26.1104 26.5289 26.1041C27.1709 26.0474 27.8003 26.2237 28.3478 26.595L26.8373 28.1496L26.2834 26.123L26.2897 26.1293ZM29.7703 25.1348C28.7758 24.3544 27.58 23.9893 26.3527 24.0963C26.1701 24.1152 25.9687 24.1341 25.7485 24.1593L22.6267 12.6854H41.3826L41.5147 13.0379L29.7703 25.1411V25.1348ZM48.6395 38.3332C43.4847 38.3332 39.2867 34.1351 39.2867 28.9804C39.2867 25.3551 41.3574 22.2081 44.3785 20.6598L46.9967 27.6083C46.6883 27.9797 46.4995 28.458 46.4995 28.9804C46.4995 30.1637 47.4562 31.1204 48.6395 31.1204C49.8227 31.1204 50.7794 30.1637 50.7794 28.9804C50.7794 27.879 49.9423 26.9727 48.8723 26.8531L46.2666 19.9298C47.0219 19.7283 47.815 19.6276 48.6395 19.6276C53.7942 19.6276 57.9922 23.8257 57.9922 28.9804C57.9922 34.1351 53.7942 38.3332 48.6395 38.3332Z" fill="#FCFCFC"/>
</g>
</svg>
